<mxfile host="app.diagrams.net" modified="2023-06-23T06:02:46.381Z" agent="Mozilla/5.0 (Windows NT 10.0; Win64; x64) AppleWebKit/537.36 (KHTML, like Gecko) Chrome/114.0.0.0 Safari/537.36 Edg/114.0.1823.51" etag="-i3_vry8tSW8rS6_F4Dr" version="21.5.0" type="device">
  <diagram id="C5RBs43oDa-KdzZeNtuy" name="Page-1">
    <mxGraphModel dx="3827" dy="2829" grid="1" gridSize="10" guides="1" tooltips="1" connect="1" arrows="1" fold="1" page="1" pageScale="1" pageWidth="827" pageHeight="1169" math="0" shadow="0">
      <root>
        <object label="" id="WIyWlLk6GJQsqaUBKTNV-0">
          <mxCell />
        </object>
        <mxCell id="WIyWlLk6GJQsqaUBKTNV-1" parent="WIyWlLk6GJQsqaUBKTNV-0" />
        <mxCell id="wLpp5JI_pL3VEKy43RH7-13" value="LevelManager" style="swimlane;fontStyle=1;align=center;verticalAlign=top;childLayout=stackLayout;horizontal=1;startSize=26;horizontalStack=0;resizeParent=1;resizeParentMax=0;resizeLast=0;collapsible=1;marginBottom=0;whiteSpace=wrap;html=1;" vertex="1" parent="WIyWlLk6GJQsqaUBKTNV-1">
          <mxGeometry x="30" y="1300" width="420" height="528" as="geometry" />
        </mxCell>
        <mxCell id="wLpp5JI_pL3VEKy43RH7-14" value="+ collisiontTest(Paddle&amp;amp;, Ball&amp;amp;) : bool" style="text;strokeColor=none;fillColor=none;align=left;verticalAlign=top;spacingLeft=4;spacingRight=4;overflow=hidden;rotatable=0;points=[[0,0.5],[1,0.5]];portConstraint=eastwest;whiteSpace=wrap;html=1;" vertex="1" parent="wLpp5JI_pL3VEKy43RH7-13">
          <mxGeometry y="26" width="420" height="26" as="geometry" />
        </mxCell>
        <mxCell id="wLpp5JI_pL3VEKy43RH7-79" value="+ collisiontTest(Block&amp;amp;, Ball&amp;amp;) : bool" style="text;strokeColor=none;fillColor=none;align=left;verticalAlign=top;spacingLeft=4;spacingRight=4;overflow=hidden;rotatable=0;points=[[0,0.5],[1,0.5]];portConstraint=eastwest;whiteSpace=wrap;html=1;" vertex="1" parent="wLpp5JI_pL3VEKy43RH7-13">
          <mxGeometry y="52" width="420" height="26" as="geometry" />
        </mxCell>
        <mxCell id="wLpp5JI_pL3VEKy43RH7-80" value="+ update() : void" style="text;strokeColor=none;fillColor=none;align=left;verticalAlign=top;spacingLeft=4;spacingRight=4;overflow=hidden;rotatable=0;points=[[0,0.5],[1,0.5]];portConstraint=eastwest;whiteSpace=wrap;html=1;" vertex="1" parent="wLpp5JI_pL3VEKy43RH7-13">
          <mxGeometry y="78" width="420" height="26" as="geometry" />
        </mxCell>
        <mxCell id="wLpp5JI_pL3VEKy43RH7-81" value="+ renderBlocks(std::string) : void" style="text;strokeColor=none;fillColor=none;align=left;verticalAlign=top;spacingLeft=4;spacingRight=4;overflow=hidden;rotatable=0;points=[[0,0.5],[1,0.5]];portConstraint=eastwest;whiteSpace=wrap;html=1;" vertex="1" parent="wLpp5JI_pL3VEKy43RH7-13">
          <mxGeometry y="104" width="420" height="26" as="geometry" />
        </mxCell>
        <mxCell id="wLpp5JI_pL3VEKy43RH7-82" value="+ setBlocksTexture(sf::Texture) : void" style="text;strokeColor=none;fillColor=none;align=left;verticalAlign=top;spacingLeft=4;spacingRight=4;overflow=hidden;rotatable=0;points=[[0,0.5],[1,0.5]];portConstraint=eastwest;whiteSpace=wrap;html=1;" vertex="1" parent="wLpp5JI_pL3VEKy43RH7-13">
          <mxGeometry y="130" width="420" height="26" as="geometry" />
        </mxCell>
        <mxCell id="wLpp5JI_pL3VEKy43RH7-83" value="+ setBallPtr(Ball) : void" style="text;strokeColor=none;fillColor=none;align=left;verticalAlign=top;spacingLeft=4;spacingRight=4;overflow=hidden;rotatable=0;points=[[0,0.5],[1,0.5]];portConstraint=eastwest;whiteSpace=wrap;html=1;" vertex="1" parent="wLpp5JI_pL3VEKy43RH7-13">
          <mxGeometry y="156" width="420" height="26" as="geometry" />
        </mxCell>
        <mxCell id="wLpp5JI_pL3VEKy43RH7-84" value="+ generateTexture(std::string) : sf::Texture" style="text;strokeColor=none;fillColor=none;align=left;verticalAlign=top;spacingLeft=4;spacingRight=4;overflow=hidden;rotatable=0;points=[[0,0.5],[1,0.5]];portConstraint=eastwest;whiteSpace=wrap;html=1;" vertex="1" parent="wLpp5JI_pL3VEKy43RH7-13">
          <mxGeometry y="182" width="420" height="26" as="geometry" />
        </mxCell>
        <mxCell id="wLpp5JI_pL3VEKy43RH7-85" value="+ generateDefaultFont(std::string) : sf::Font" style="text;strokeColor=none;fillColor=none;align=left;verticalAlign=top;spacingLeft=4;spacingRight=4;overflow=hidden;rotatable=0;points=[[0,0.5],[1,0.5]];portConstraint=eastwest;whiteSpace=wrap;html=1;" vertex="1" parent="wLpp5JI_pL3VEKy43RH7-13">
          <mxGeometry y="208" width="420" height="26" as="geometry" />
        </mxCell>
        <mxCell id="wLpp5JI_pL3VEKy43RH7-86" value="+ allocateText(int, int, sf::Font) : sf::Text" style="text;strokeColor=none;fillColor=none;align=left;verticalAlign=top;spacingLeft=4;spacingRight=4;overflow=hidden;rotatable=0;points=[[0,0.5],[1,0.5]];portConstraint=eastwest;whiteSpace=wrap;html=1;" vertex="1" parent="wLpp5JI_pL3VEKy43RH7-13">
          <mxGeometry y="234" width="420" height="26" as="geometry" />
        </mxCell>
        <mxCell id="wLpp5JI_pL3VEKy43RH7-103" value="+ operator+(const LevelManager&amp;amp;) const : LevelManager" style="text;strokeColor=none;fillColor=none;align=left;verticalAlign=top;spacingLeft=4;spacingRight=4;overflow=hidden;rotatable=0;points=[[0,0.5],[1,0.5]];portConstraint=eastwest;whiteSpace=wrap;html=1;" vertex="1" parent="wLpp5JI_pL3VEKy43RH7-13">
          <mxGeometry y="260" width="420" height="26" as="geometry" />
        </mxCell>
        <mxCell id="wLpp5JI_pL3VEKy43RH7-104" value="+ operator=(const LevelManager&amp;amp;) : LevelManager&amp;amp;" style="text;strokeColor=none;fillColor=none;align=left;verticalAlign=top;spacingLeft=4;spacingRight=4;overflow=hidden;rotatable=0;points=[[0,0.5],[1,0.5]];portConstraint=eastwest;whiteSpace=wrap;html=1;" vertex="1" parent="wLpp5JI_pL3VEKy43RH7-13">
          <mxGeometry y="286" width="420" height="26" as="geometry" />
        </mxCell>
        <mxCell id="wLpp5JI_pL3VEKy43RH7-15" value="" style="line;strokeWidth=1;fillColor=none;align=left;verticalAlign=middle;spacingTop=-1;spacingLeft=3;spacingRight=3;rotatable=0;labelPosition=right;points=[];portConstraint=eastwest;strokeColor=inherit;" vertex="1" parent="wLpp5JI_pL3VEKy43RH7-13">
          <mxGeometry y="312" width="420" height="8" as="geometry" />
        </mxCell>
        <mxCell id="wLpp5JI_pL3VEKy43RH7-88" value="+ blocks : std::vector&amp;lt;Block&amp;gt;" style="text;strokeColor=none;fillColor=none;align=left;verticalAlign=top;spacingLeft=4;spacingRight=4;overflow=hidden;rotatable=0;points=[[0,0.5],[1,0.5]];portConstraint=eastwest;whiteSpace=wrap;html=1;" vertex="1" parent="wLpp5JI_pL3VEKy43RH7-13">
          <mxGeometry y="320" width="420" height="26" as="geometry" />
        </mxCell>
        <mxCell id="wLpp5JI_pL3VEKy43RH7-89" value="+ points : int" style="text;strokeColor=none;fillColor=none;align=left;verticalAlign=top;spacingLeft=4;spacingRight=4;overflow=hidden;rotatable=0;points=[[0,0.5],[1,0.5]];portConstraint=eastwest;whiteSpace=wrap;html=1;" vertex="1" parent="wLpp5JI_pL3VEKy43RH7-13">
          <mxGeometry y="346" width="420" height="26" as="geometry" />
        </mxCell>
        <mxCell id="wLpp5JI_pL3VEKy43RH7-90" value="+ lifes : int" style="text;strokeColor=none;fillColor=none;align=left;verticalAlign=top;spacingLeft=4;spacingRight=4;overflow=hidden;rotatable=0;points=[[0,0.5],[1,0.5]];portConstraint=eastwest;whiteSpace=wrap;html=1;" vertex="1" parent="wLpp5JI_pL3VEKy43RH7-13">
          <mxGeometry y="372" width="420" height="26" as="geometry" />
        </mxCell>
        <mxCell id="wLpp5JI_pL3VEKy43RH7-91" value="+ ballPtr : Ball*" style="text;strokeColor=none;fillColor=none;align=left;verticalAlign=top;spacingLeft=4;spacingRight=4;overflow=hidden;rotatable=0;points=[[0,0.5],[1,0.5]];portConstraint=eastwest;whiteSpace=wrap;html=1;" vertex="1" parent="wLpp5JI_pL3VEKy43RH7-13">
          <mxGeometry y="398" width="420" height="26" as="geometry" />
        </mxCell>
        <mxCell id="wLpp5JI_pL3VEKy43RH7-106" value="+ blocksX : const unsigned int" style="text;strokeColor=none;fillColor=none;align=left;verticalAlign=top;spacingLeft=4;spacingRight=4;overflow=hidden;rotatable=0;points=[[0,0.5],[1,0.5]];portConstraint=eastwest;whiteSpace=wrap;html=1;" vertex="1" parent="wLpp5JI_pL3VEKy43RH7-13">
          <mxGeometry y="424" width="420" height="26" as="geometry" />
        </mxCell>
        <mxCell id="wLpp5JI_pL3VEKy43RH7-107" value="+ blocksY : const unsigned int" style="text;strokeColor=none;fillColor=none;align=left;verticalAlign=top;spacingLeft=4;spacingRight=4;overflow=hidden;rotatable=0;points=[[0,0.5],[1,0.5]];portConstraint=eastwest;whiteSpace=wrap;html=1;" vertex="1" parent="wLpp5JI_pL3VEKy43RH7-13">
          <mxGeometry y="450" width="420" height="26" as="geometry" />
        </mxCell>
        <mxCell id="wLpp5JI_pL3VEKy43RH7-108" value="+ blockWidth : const unsigned int" style="text;strokeColor=none;fillColor=none;align=left;verticalAlign=top;spacingLeft=4;spacingRight=4;overflow=hidden;rotatable=0;points=[[0,0.5],[1,0.5]];portConstraint=eastwest;whiteSpace=wrap;html=1;" vertex="1" parent="wLpp5JI_pL3VEKy43RH7-13">
          <mxGeometry y="476" width="420" height="26" as="geometry" />
        </mxCell>
        <mxCell id="wLpp5JI_pL3VEKy43RH7-109" value="+ blockHeight : const unsigned int" style="text;strokeColor=none;fillColor=none;align=left;verticalAlign=top;spacingLeft=4;spacingRight=4;overflow=hidden;rotatable=0;points=[[0,0.5],[1,0.5]];portConstraint=eastwest;whiteSpace=wrap;html=1;" vertex="1" parent="wLpp5JI_pL3VEKy43RH7-13">
          <mxGeometry y="502" width="420" height="26" as="geometry" />
        </mxCell>
        <mxCell id="wLpp5JI_pL3VEKy43RH7-17" value="MovementManager" style="swimlane;fontStyle=1;align=center;verticalAlign=top;childLayout=stackLayout;horizontal=1;startSize=26;horizontalStack=0;resizeParent=1;resizeParentMax=0;resizeLast=0;collapsible=1;marginBottom=0;whiteSpace=wrap;html=1;" vertex="1" parent="WIyWlLk6GJQsqaUBKTNV-1">
          <mxGeometry x="634" y="1540" width="216" height="138" as="geometry" />
        </mxCell>
        <mxCell id="wLpp5JI_pL3VEKy43RH7-18" value="+ ~MovementManager()" style="text;strokeColor=none;fillColor=none;align=left;verticalAlign=top;spacingLeft=4;spacingRight=4;overflow=hidden;rotatable=0;points=[[0,0.5],[1,0.5]];portConstraint=eastwest;whiteSpace=wrap;html=1;" vertex="1" parent="wLpp5JI_pL3VEKy43RH7-17">
          <mxGeometry y="26" width="216" height="26" as="geometry" />
        </mxCell>
        <mxCell id="wLpp5JI_pL3VEKy43RH7-68" value="+ update() : void" style="text;strokeColor=none;fillColor=none;align=left;verticalAlign=top;spacingLeft=4;spacingRight=4;overflow=hidden;rotatable=0;points=[[0,0.5],[1,0.5]];portConstraint=eastwest;whiteSpace=wrap;html=1;" vertex="1" parent="wLpp5JI_pL3VEKy43RH7-17">
          <mxGeometry y="52" width="216" height="26" as="geometry" />
        </mxCell>
        <mxCell id="wLpp5JI_pL3VEKy43RH7-20" value="+ setMovingObject(Paddle*) : void" style="text;strokeColor=none;fillColor=none;align=left;verticalAlign=top;spacingLeft=4;spacingRight=4;overflow=hidden;rotatable=0;points=[[0,0.5],[1,0.5]];portConstraint=eastwest;whiteSpace=wrap;html=1;" vertex="1" parent="wLpp5JI_pL3VEKy43RH7-17">
          <mxGeometry y="78" width="216" height="26" as="geometry" />
        </mxCell>
        <mxCell id="wLpp5JI_pL3VEKy43RH7-19" value="" style="line;strokeWidth=1;fillColor=none;align=left;verticalAlign=middle;spacingTop=-1;spacingLeft=3;spacingRight=3;rotatable=0;labelPosition=right;points=[];portConstraint=eastwest;strokeColor=inherit;" vertex="1" parent="wLpp5JI_pL3VEKy43RH7-17">
          <mxGeometry y="104" width="216" height="8" as="geometry" />
        </mxCell>
        <mxCell id="wLpp5JI_pL3VEKy43RH7-70" value="+ paddlePtr : Paddle*" style="text;strokeColor=none;fillColor=none;align=left;verticalAlign=top;spacingLeft=4;spacingRight=4;overflow=hidden;rotatable=0;points=[[0,0.5],[1,0.5]];portConstraint=eastwest;whiteSpace=wrap;html=1;" vertex="1" parent="wLpp5JI_pL3VEKy43RH7-17">
          <mxGeometry y="112" width="216" height="26" as="geometry" />
        </mxCell>
        <mxCell id="wLpp5JI_pL3VEKy43RH7-25" value="sf::Vector2f" style="swimlane;fontStyle=1;align=center;verticalAlign=top;childLayout=stackLayout;horizontal=1;startSize=26;horizontalStack=0;resizeParent=1;resizeParentMax=0;resizeLast=0;collapsible=1;marginBottom=0;whiteSpace=wrap;html=1;" vertex="1" parent="WIyWlLk6GJQsqaUBKTNV-1">
          <mxGeometry x="580" y="170" width="160" height="164" as="geometry" />
        </mxCell>
        <mxCell id="wLpp5JI_pL3VEKy43RH7-221" value="+ Vector2f()" style="text;strokeColor=none;fillColor=none;align=left;verticalAlign=top;spacingLeft=4;spacingRight=4;overflow=hidden;rotatable=0;points=[[0,0.5],[1,0.5]];portConstraint=eastwest;whiteSpace=wrap;html=1;" vertex="1" parent="wLpp5JI_pL3VEKy43RH7-25">
          <mxGeometry y="26" width="160" height="26" as="geometry" />
        </mxCell>
        <mxCell id="wLpp5JI_pL3VEKy43RH7-26" value="+ Vector2f()" style="text;strokeColor=none;fillColor=none;align=left;verticalAlign=top;spacingLeft=4;spacingRight=4;overflow=hidden;rotatable=0;points=[[0,0.5],[1,0.5]];portConstraint=eastwest;whiteSpace=wrap;html=1;" vertex="1" parent="wLpp5JI_pL3VEKy43RH7-25">
          <mxGeometry y="52" width="160" height="26" as="geometry" />
        </mxCell>
        <mxCell id="wLpp5JI_pL3VEKy43RH7-28" value="+ Vector2f(float, float)" style="text;strokeColor=none;fillColor=none;align=left;verticalAlign=top;spacingLeft=4;spacingRight=4;overflow=hidden;rotatable=0;points=[[0,0.5],[1,0.5]];portConstraint=eastwest;whiteSpace=wrap;html=1;" vertex="1" parent="wLpp5JI_pL3VEKy43RH7-25">
          <mxGeometry y="78" width="160" height="26" as="geometry" />
        </mxCell>
        <mxCell id="wLpp5JI_pL3VEKy43RH7-27" value="" style="line;strokeWidth=1;fillColor=none;align=left;verticalAlign=middle;spacingTop=-1;spacingLeft=3;spacingRight=3;rotatable=0;labelPosition=right;points=[];portConstraint=eastwest;strokeColor=inherit;" vertex="1" parent="wLpp5JI_pL3VEKy43RH7-25">
          <mxGeometry y="104" width="160" height="8" as="geometry" />
        </mxCell>
        <mxCell id="wLpp5JI_pL3VEKy43RH7-66" value="+ x : float" style="text;strokeColor=none;fillColor=none;align=left;verticalAlign=top;spacingLeft=4;spacingRight=4;overflow=hidden;rotatable=0;points=[[0,0.5],[1,0.5]];portConstraint=eastwest;whiteSpace=wrap;html=1;" vertex="1" parent="wLpp5JI_pL3VEKy43RH7-25">
          <mxGeometry y="112" width="160" height="26" as="geometry" />
        </mxCell>
        <mxCell id="wLpp5JI_pL3VEKy43RH7-67" value="+ y : float" style="text;strokeColor=none;fillColor=none;align=left;verticalAlign=top;spacingLeft=4;spacingRight=4;overflow=hidden;rotatable=0;points=[[0,0.5],[1,0.5]];portConstraint=eastwest;whiteSpace=wrap;html=1;" vertex="1" parent="wLpp5JI_pL3VEKy43RH7-25">
          <mxGeometry y="138" width="160" height="26" as="geometry" />
        </mxCell>
        <mxCell id="wLpp5JI_pL3VEKy43RH7-42" value="Paddle" style="swimlane;fontStyle=1;align=center;verticalAlign=top;childLayout=stackLayout;horizontal=1;startSize=26;horizontalStack=0;resizeParent=1;resizeParentMax=0;resizeLast=0;collapsible=1;marginBottom=0;whiteSpace=wrap;html=1;" vertex="1" parent="WIyWlLk6GJQsqaUBKTNV-1">
          <mxGeometry x="30" y="96" width="350" height="474" as="geometry" />
        </mxCell>
        <mxCell id="wLpp5JI_pL3VEKy43RH7-45" value="+ Paddle()" style="text;strokeColor=none;fillColor=none;align=left;verticalAlign=top;spacingLeft=4;spacingRight=4;overflow=hidden;rotatable=0;points=[[0,0.5],[1,0.5]];portConstraint=eastwest;whiteSpace=wrap;html=1;" vertex="1" parent="wLpp5JI_pL3VEKy43RH7-42">
          <mxGeometry y="26" width="350" height="26" as="geometry" />
        </mxCell>
        <mxCell id="wLpp5JI_pL3VEKy43RH7-50" value="+ Paddle(float, float)" style="text;strokeColor=none;fillColor=none;align=left;verticalAlign=top;spacingLeft=4;spacingRight=4;overflow=hidden;rotatable=0;points=[[0,0.5],[1,0.5]];portConstraint=eastwest;whiteSpace=wrap;html=1;" vertex="1" parent="wLpp5JI_pL3VEKy43RH7-42">
          <mxGeometry y="52" width="350" height="26" as="geometry" />
        </mxCell>
        <mxCell id="wLpp5JI_pL3VEKy43RH7-51" value="+ ~Paddle()" style="text;strokeColor=none;fillColor=none;align=left;verticalAlign=top;spacingLeft=4;spacingRight=4;overflow=hidden;rotatable=0;points=[[0,0.5],[1,0.5]];portConstraint=eastwest;whiteSpace=wrap;html=1;" vertex="1" parent="wLpp5JI_pL3VEKy43RH7-42">
          <mxGeometry y="78" width="350" height="26" as="geometry" />
        </mxCell>
        <mxCell id="wLpp5JI_pL3VEKy43RH7-52" value="+ keyboardUpdate() : void" style="text;strokeColor=none;fillColor=none;align=left;verticalAlign=top;spacingLeft=4;spacingRight=4;overflow=hidden;rotatable=0;points=[[0,0.5],[1,0.5]];portConstraint=eastwest;whiteSpace=wrap;html=1;" vertex="1" parent="wLpp5JI_pL3VEKy43RH7-42">
          <mxGeometry y="104" width="350" height="26" as="geometry" />
        </mxCell>
        <mxCell id="wLpp5JI_pL3VEKy43RH7-53" value="+ update(std::string) : void" style="text;strokeColor=none;fillColor=none;align=left;verticalAlign=top;spacingLeft=4;spacingRight=4;overflow=hidden;rotatable=0;points=[[0,0.5],[1,0.5]];portConstraint=eastwest;whiteSpace=wrap;html=1;" vertex="1" parent="wLpp5JI_pL3VEKy43RH7-42">
          <mxGeometry y="130" width="350" height="26" as="geometry" />
        </mxCell>
        <mxCell id="wLpp5JI_pL3VEKy43RH7-54" value="+ left() : float" style="text;strokeColor=none;fillColor=none;align=left;verticalAlign=top;spacingLeft=4;spacingRight=4;overflow=hidden;rotatable=0;points=[[0,0.5],[1,0.5]];portConstraint=eastwest;whiteSpace=wrap;html=1;" vertex="1" parent="wLpp5JI_pL3VEKy43RH7-42">
          <mxGeometry y="156" width="350" height="26" as="geometry" />
        </mxCell>
        <mxCell id="wLpp5JI_pL3VEKy43RH7-55" value="+ right() : float" style="text;strokeColor=none;fillColor=none;align=left;verticalAlign=top;spacingLeft=4;spacingRight=4;overflow=hidden;rotatable=0;points=[[0,0.5],[1,0.5]];portConstraint=eastwest;whiteSpace=wrap;html=1;" vertex="1" parent="wLpp5JI_pL3VEKy43RH7-42">
          <mxGeometry y="182" width="350" height="26" as="geometry" />
        </mxCell>
        <mxCell id="wLpp5JI_pL3VEKy43RH7-56" value="+ top() : float" style="text;strokeColor=none;fillColor=none;align=left;verticalAlign=top;spacingLeft=4;spacingRight=4;overflow=hidden;rotatable=0;points=[[0,0.5],[1,0.5]];portConstraint=eastwest;whiteSpace=wrap;html=1;" vertex="1" parent="wLpp5JI_pL3VEKy43RH7-42">
          <mxGeometry y="208" width="350" height="26" as="geometry" />
        </mxCell>
        <mxCell id="wLpp5JI_pL3VEKy43RH7-57" value="+ bottom() : float" style="text;strokeColor=none;fillColor=none;align=left;verticalAlign=top;spacingLeft=4;spacingRight=4;overflow=hidden;rotatable=0;points=[[0,0.5],[1,0.5]];portConstraint=eastwest;whiteSpace=wrap;html=1;" vertex="1" parent="wLpp5JI_pL3VEKy43RH7-42">
          <mxGeometry y="234" width="350" height="26" as="geometry" />
        </mxCell>
        <mxCell id="wLpp5JI_pL3VEKy43RH7-58" value="+ myTexture(sf::Texture) : void" style="text;strokeColor=none;fillColor=none;align=left;verticalAlign=top;spacingLeft=4;spacingRight=4;overflow=hidden;rotatable=0;points=[[0,0.5],[1,0.5]];portConstraint=eastwest;whiteSpace=wrap;html=1;" vertex="1" parent="wLpp5JI_pL3VEKy43RH7-42">
          <mxGeometry y="260" width="350" height="26" as="geometry" />
        </mxCell>
        <mxCell id="wLpp5JI_pL3VEKy43RH7-59" value="+ getPosition() : sf::Vector2f" style="text;strokeColor=none;fillColor=none;align=left;verticalAlign=top;spacingLeft=4;spacingRight=4;overflow=hidden;rotatable=0;points=[[0,0.5],[1,0.5]];portConstraint=eastwest;whiteSpace=wrap;html=1;" vertex="1" parent="wLpp5JI_pL3VEKy43RH7-42">
          <mxGeometry y="286" width="350" height="26" as="geometry" />
        </mxCell>
        <mxCell id="wLpp5JI_pL3VEKy43RH7-60" value="+ draw(sf::RenderTarget&amp;amp;, sf::RenderStates) const : void" style="text;strokeColor=none;fillColor=none;align=left;verticalAlign=top;spacingLeft=4;spacingRight=4;overflow=hidden;rotatable=0;points=[[0,0.5],[1,0.5]];portConstraint=eastwest;whiteSpace=wrap;html=1;" vertex="1" parent="wLpp5JI_pL3VEKy43RH7-42">
          <mxGeometry y="312" width="350" height="24" as="geometry" />
        </mxCell>
        <mxCell id="wLpp5JI_pL3VEKy43RH7-44" value="" style="line;strokeWidth=1;fillColor=none;align=left;verticalAlign=middle;spacingTop=-1;spacingLeft=3;spacingRight=3;rotatable=0;labelPosition=right;points=[];portConstraint=eastwest;strokeColor=inherit;" vertex="1" parent="wLpp5JI_pL3VEKy43RH7-42">
          <mxGeometry y="336" width="350" height="8" as="geometry" />
        </mxCell>
        <mxCell id="wLpp5JI_pL3VEKy43RH7-61" value="+ shape : sf::RectangleShape" style="text;strokeColor=none;fillColor=none;align=left;verticalAlign=top;spacingLeft=4;spacingRight=4;overflow=hidden;rotatable=0;points=[[0,0.5],[1,0.5]];portConstraint=eastwest;whiteSpace=wrap;html=1;" vertex="1" parent="wLpp5JI_pL3VEKy43RH7-42">
          <mxGeometry y="344" width="350" height="26" as="geometry" />
        </mxCell>
        <mxCell id="wLpp5JI_pL3VEKy43RH7-62" value="+ paddleHeight : const float&lt;br&gt;" style="text;strokeColor=none;fillColor=none;align=left;verticalAlign=top;spacingLeft=4;spacingRight=4;overflow=hidden;rotatable=0;points=[[0,0.5],[1,0.5]];portConstraint=eastwest;whiteSpace=wrap;html=1;" vertex="1" parent="wLpp5JI_pL3VEKy43RH7-42">
          <mxGeometry y="370" width="350" height="26" as="geometry" />
        </mxCell>
        <mxCell id="wLpp5JI_pL3VEKy43RH7-63" value="+ paddleWidth : const float" style="text;strokeColor=none;fillColor=none;align=left;verticalAlign=top;spacingLeft=4;spacingRight=4;overflow=hidden;rotatable=0;points=[[0,0.5],[1,0.5]];portConstraint=eastwest;whiteSpace=wrap;html=1;" vertex="1" parent="wLpp5JI_pL3VEKy43RH7-42">
          <mxGeometry y="396" width="350" height="26" as="geometry" />
        </mxCell>
        <mxCell id="wLpp5JI_pL3VEKy43RH7-64" value="+ spriteVelocity : const float" style="text;strokeColor=none;fillColor=none;align=left;verticalAlign=top;spacingLeft=4;spacingRight=4;overflow=hidden;rotatable=0;points=[[0,0.5],[1,0.5]];portConstraint=eastwest;whiteSpace=wrap;html=1;" vertex="1" parent="wLpp5JI_pL3VEKy43RH7-42">
          <mxGeometry y="422" width="350" height="26" as="geometry" />
        </mxCell>
        <mxCell id="wLpp5JI_pL3VEKy43RH7-65" value="+ velocityVector : sf::Vector2f" style="text;strokeColor=none;fillColor=none;align=left;verticalAlign=top;spacingLeft=4;spacingRight=4;overflow=hidden;rotatable=0;points=[[0,0.5],[1,0.5]];portConstraint=eastwest;whiteSpace=wrap;html=1;" vertex="1" parent="wLpp5JI_pL3VEKy43RH7-42">
          <mxGeometry y="448" width="350" height="26" as="geometry" />
        </mxCell>
        <mxCell id="wLpp5JI_pL3VEKy43RH7-71" value="Manager" style="swimlane;fontStyle=0;childLayout=stackLayout;horizontal=1;startSize=26;fillColor=none;horizontalStack=0;resizeParent=1;resizeParentMax=0;resizeLast=0;collapsible=1;marginBottom=0;whiteSpace=wrap;html=1;" vertex="1" parent="WIyWlLk6GJQsqaUBKTNV-1">
          <mxGeometry x="490" y="2060" width="150" height="52" as="geometry" />
        </mxCell>
        <mxCell id="wLpp5JI_pL3VEKy43RH7-72" value="&lt;i&gt;+ update() : void&lt;/i&gt;" style="text;strokeColor=none;fillColor=none;align=left;verticalAlign=top;spacingLeft=4;spacingRight=4;overflow=hidden;rotatable=0;points=[[0,0.5],[1,0.5]];portConstraint=eastwest;whiteSpace=wrap;html=1;" vertex="1" parent="wLpp5JI_pL3VEKy43RH7-71">
          <mxGeometry y="26" width="150" height="26" as="geometry" />
        </mxCell>
        <mxCell id="wLpp5JI_pL3VEKy43RH7-75" value="sf::Drawable" style="swimlane;fontStyle=0;childLayout=stackLayout;horizontal=1;startSize=26;fillColor=none;horizontalStack=0;resizeParent=1;resizeParentMax=0;resizeLast=0;collapsible=1;marginBottom=0;whiteSpace=wrap;html=1;" vertex="1" parent="WIyWlLk6GJQsqaUBKTNV-1">
          <mxGeometry x="710" y="44" width="140" height="52" as="geometry" />
        </mxCell>
        <mxCell id="wLpp5JI_pL3VEKy43RH7-76" value="..." style="text;strokeColor=none;fillColor=none;align=left;verticalAlign=top;spacingLeft=4;spacingRight=4;overflow=hidden;rotatable=0;points=[[0,0.5],[1,0.5]];portConstraint=eastwest;whiteSpace=wrap;html=1;" vertex="1" parent="wLpp5JI_pL3VEKy43RH7-75">
          <mxGeometry y="26" width="140" height="26" as="geometry" />
        </mxCell>
        <mxCell id="wLpp5JI_pL3VEKy43RH7-92" value="sf::Texture" style="swimlane;fontStyle=0;childLayout=stackLayout;horizontal=1;startSize=26;fillColor=none;horizontalStack=0;resizeParent=1;resizeParentMax=0;resizeLast=0;collapsible=1;marginBottom=0;whiteSpace=wrap;html=1;" vertex="1" parent="WIyWlLk6GJQsqaUBKTNV-1">
          <mxGeometry x="480" y="40" width="140" height="52" as="geometry" />
        </mxCell>
        <mxCell id="wLpp5JI_pL3VEKy43RH7-93" value="..." style="text;strokeColor=none;fillColor=none;align=left;verticalAlign=top;spacingLeft=4;spacingRight=4;overflow=hidden;rotatable=0;points=[[0,0.5],[1,0.5]];portConstraint=eastwest;whiteSpace=wrap;html=1;" vertex="1" parent="wLpp5JI_pL3VEKy43RH7-92">
          <mxGeometry y="26" width="140" height="26" as="geometry" />
        </mxCell>
        <mxCell id="wLpp5JI_pL3VEKy43RH7-96" value="sf::Font" style="swimlane;fontStyle=0;childLayout=stackLayout;horizontal=1;startSize=26;fillColor=none;horizontalStack=0;resizeParent=1;resizeParentMax=0;resizeLast=0;collapsible=1;marginBottom=0;whiteSpace=wrap;html=1;" vertex="1" parent="WIyWlLk6GJQsqaUBKTNV-1">
          <mxGeometry x="-350" y="1820" width="140" height="52" as="geometry" />
        </mxCell>
        <mxCell id="wLpp5JI_pL3VEKy43RH7-97" value="..." style="text;strokeColor=none;fillColor=none;align=left;verticalAlign=top;spacingLeft=4;spacingRight=4;overflow=hidden;rotatable=0;points=[[0,0.5],[1,0.5]];portConstraint=eastwest;whiteSpace=wrap;html=1;" vertex="1" parent="wLpp5JI_pL3VEKy43RH7-96">
          <mxGeometry y="26" width="140" height="26" as="geometry" />
        </mxCell>
        <mxCell id="wLpp5JI_pL3VEKy43RH7-100" value="sf::Text" style="swimlane;fontStyle=0;childLayout=stackLayout;horizontal=1;startSize=26;fillColor=none;horizontalStack=0;resizeParent=1;resizeParentMax=0;resizeLast=0;collapsible=1;marginBottom=0;whiteSpace=wrap;html=1;" vertex="1" parent="WIyWlLk6GJQsqaUBKTNV-1">
          <mxGeometry x="-350" y="1460" width="140" height="52" as="geometry" />
        </mxCell>
        <mxCell id="wLpp5JI_pL3VEKy43RH7-101" value="..." style="text;strokeColor=none;fillColor=none;align=left;verticalAlign=top;spacingLeft=4;spacingRight=4;overflow=hidden;rotatable=0;points=[[0,0.5],[1,0.5]];portConstraint=eastwest;whiteSpace=wrap;html=1;" vertex="1" parent="wLpp5JI_pL3VEKy43RH7-100">
          <mxGeometry y="26" width="140" height="26" as="geometry" />
        </mxCell>
        <mxCell id="wLpp5JI_pL3VEKy43RH7-111" value="Game" style="swimlane;fontStyle=1;align=center;verticalAlign=top;childLayout=stackLayout;horizontal=1;startSize=26;horizontalStack=0;resizeParent=1;resizeParentMax=0;resizeLast=0;collapsible=1;marginBottom=0;whiteSpace=wrap;html=1;" vertex="1" parent="WIyWlLk6GJQsqaUBKTNV-1">
          <mxGeometry x="-540" y="585" width="240" height="138" as="geometry" />
        </mxCell>
        <mxCell id="wLpp5JI_pL3VEKy43RH7-112" value="+ Game(unsigned int, unsigned int)" style="text;strokeColor=none;fillColor=none;align=left;verticalAlign=top;spacingLeft=4;spacingRight=4;overflow=hidden;rotatable=0;points=[[0,0.5],[1,0.5]];portConstraint=eastwest;whiteSpace=wrap;html=1;" vertex="1" parent="wLpp5JI_pL3VEKy43RH7-111">
          <mxGeometry y="26" width="240" height="26" as="geometry" />
        </mxCell>
        <mxCell id="wLpp5JI_pL3VEKy43RH7-113" value="+ play() : void" style="text;strokeColor=none;fillColor=none;align=left;verticalAlign=top;spacingLeft=4;spacingRight=4;overflow=hidden;rotatable=0;points=[[0,0.5],[1,0.5]];portConstraint=eastwest;whiteSpace=wrap;html=1;" vertex="1" parent="wLpp5JI_pL3VEKy43RH7-111">
          <mxGeometry y="52" width="240" height="26" as="geometry" />
        </mxCell>
        <mxCell id="wLpp5JI_pL3VEKy43RH7-114" value="" style="line;strokeWidth=1;fillColor=none;align=left;verticalAlign=middle;spacingTop=-1;spacingLeft=3;spacingRight=3;rotatable=0;labelPosition=right;points=[];portConstraint=eastwest;strokeColor=inherit;" vertex="1" parent="wLpp5JI_pL3VEKy43RH7-111">
          <mxGeometry y="78" width="240" height="8" as="geometry" />
        </mxCell>
        <mxCell id="wLpp5JI_pL3VEKy43RH7-115" value="+ window_X : const unsigned int" style="text;strokeColor=none;fillColor=none;align=left;verticalAlign=top;spacingLeft=4;spacingRight=4;overflow=hidden;rotatable=0;points=[[0,0.5],[1,0.5]];portConstraint=eastwest;whiteSpace=wrap;html=1;" vertex="1" parent="wLpp5JI_pL3VEKy43RH7-111">
          <mxGeometry y="86" width="240" height="26" as="geometry" />
        </mxCell>
        <mxCell id="wLpp5JI_pL3VEKy43RH7-117" value="+ window_Y : const unsigned int" style="text;strokeColor=none;fillColor=none;align=left;verticalAlign=top;spacingLeft=4;spacingRight=4;overflow=hidden;rotatable=0;points=[[0,0.5],[1,0.5]];portConstraint=eastwest;whiteSpace=wrap;html=1;" vertex="1" parent="wLpp5JI_pL3VEKy43RH7-111">
          <mxGeometry y="112" width="240" height="26" as="geometry" />
        </mxCell>
        <mxCell id="wLpp5JI_pL3VEKy43RH7-118" value="Block" style="swimlane;fontStyle=1;align=center;verticalAlign=top;childLayout=stackLayout;horizontal=1;startSize=26;horizontalStack=0;resizeParent=1;resizeParentMax=0;resizeLast=0;collapsible=1;marginBottom=0;whiteSpace=wrap;html=1;" vertex="1" parent="WIyWlLk6GJQsqaUBKTNV-1">
          <mxGeometry x="1180" y="96" width="340" height="398" as="geometry" />
        </mxCell>
        <mxCell id="wLpp5JI_pL3VEKy43RH7-119" value="+ Block(float, float, float, float)" style="text;strokeColor=none;fillColor=none;align=left;verticalAlign=top;spacingLeft=4;spacingRight=4;overflow=hidden;rotatable=0;points=[[0,0.5],[1,0.5]];portConstraint=eastwest;whiteSpace=wrap;html=1;" vertex="1" parent="wLpp5JI_pL3VEKy43RH7-118">
          <mxGeometry y="26" width="340" height="26" as="geometry" />
        </mxCell>
        <mxCell id="wLpp5JI_pL3VEKy43RH7-120" value="+ ~Block()" style="text;strokeColor=none;fillColor=none;align=left;verticalAlign=top;spacingLeft=4;spacingRight=4;overflow=hidden;rotatable=0;points=[[0,0.5],[1,0.5]];portConstraint=eastwest;whiteSpace=wrap;html=1;" vertex="1" parent="wLpp5JI_pL3VEKy43RH7-118">
          <mxGeometry y="52" width="340" height="26" as="geometry" />
        </mxCell>
        <mxCell id="wLpp5JI_pL3VEKy43RH7-122" value="+ getPosition() : sf::Vector2f" style="text;strokeColor=none;fillColor=none;align=left;verticalAlign=top;spacingLeft=4;spacingRight=4;overflow=hidden;rotatable=0;points=[[0,0.5],[1,0.5]];portConstraint=eastwest;whiteSpace=wrap;html=1;" vertex="1" parent="wLpp5JI_pL3VEKy43RH7-118">
          <mxGeometry y="78" width="340" height="26" as="geometry" />
        </mxCell>
        <mxCell id="wLpp5JI_pL3VEKy43RH7-123" value="+ left() : float" style="text;strokeColor=none;fillColor=none;align=left;verticalAlign=top;spacingLeft=4;spacingRight=4;overflow=hidden;rotatable=0;points=[[0,0.5],[1,0.5]];portConstraint=eastwest;whiteSpace=wrap;html=1;" vertex="1" parent="wLpp5JI_pL3VEKy43RH7-118">
          <mxGeometry y="104" width="340" height="26" as="geometry" />
        </mxCell>
        <mxCell id="wLpp5JI_pL3VEKy43RH7-125" value="+ right() : float" style="text;strokeColor=none;fillColor=none;align=left;verticalAlign=top;spacingLeft=4;spacingRight=4;overflow=hidden;rotatable=0;points=[[0,0.5],[1,0.5]];portConstraint=eastwest;whiteSpace=wrap;html=1;" vertex="1" parent="wLpp5JI_pL3VEKy43RH7-118">
          <mxGeometry y="130" width="340" height="26" as="geometry" />
        </mxCell>
        <mxCell id="wLpp5JI_pL3VEKy43RH7-126" value="+ top() : float" style="text;strokeColor=none;fillColor=none;align=left;verticalAlign=top;spacingLeft=4;spacingRight=4;overflow=hidden;rotatable=0;points=[[0,0.5],[1,0.5]];portConstraint=eastwest;whiteSpace=wrap;html=1;" vertex="1" parent="wLpp5JI_pL3VEKy43RH7-118">
          <mxGeometry y="156" width="340" height="26" as="geometry" />
        </mxCell>
        <mxCell id="wLpp5JI_pL3VEKy43RH7-127" value="+ bottom() : float" style="text;strokeColor=none;fillColor=none;align=left;verticalAlign=top;spacingLeft=4;spacingRight=4;overflow=hidden;rotatable=0;points=[[0,0.5],[1,0.5]];portConstraint=eastwest;whiteSpace=wrap;html=1;" vertex="1" parent="wLpp5JI_pL3VEKy43RH7-118">
          <mxGeometry y="182" width="340" height="26" as="geometry" />
        </mxCell>
        <mxCell id="wLpp5JI_pL3VEKy43RH7-128" value="+ isDestroyed() : bool" style="text;strokeColor=none;fillColor=none;align=left;verticalAlign=top;spacingLeft=4;spacingRight=4;overflow=hidden;rotatable=0;points=[[0,0.5],[1,0.5]];portConstraint=eastwest;whiteSpace=wrap;html=1;" vertex="1" parent="wLpp5JI_pL3VEKy43RH7-118">
          <mxGeometry y="208" width="340" height="26" as="geometry" />
        </mxCell>
        <mxCell id="wLpp5JI_pL3VEKy43RH7-129" value="+ destroy() : void" style="text;strokeColor=none;fillColor=none;align=left;verticalAlign=top;spacingLeft=4;spacingRight=4;overflow=hidden;rotatable=0;points=[[0,0.5],[1,0.5]];portConstraint=eastwest;whiteSpace=wrap;html=1;" vertex="1" parent="wLpp5JI_pL3VEKy43RH7-118">
          <mxGeometry y="234" width="340" height="26" as="geometry" />
        </mxCell>
        <mxCell id="wLpp5JI_pL3VEKy43RH7-130" value="+ getSize() : sf::Vector2f" style="text;strokeColor=none;fillColor=none;align=left;verticalAlign=top;spacingLeft=4;spacingRight=4;overflow=hidden;rotatable=0;points=[[0,0.5],[1,0.5]];portConstraint=eastwest;whiteSpace=wrap;html=1;" vertex="1" parent="wLpp5JI_pL3VEKy43RH7-118">
          <mxGeometry y="260" width="340" height="26" as="geometry" />
        </mxCell>
        <mxCell id="wLpp5JI_pL3VEKy43RH7-131" value="+ myTexture(sf::Texture&amp;amp;) : void" style="text;strokeColor=none;fillColor=none;align=left;verticalAlign=top;spacingLeft=4;spacingRight=4;overflow=hidden;rotatable=0;points=[[0,0.5],[1,0.5]];portConstraint=eastwest;whiteSpace=wrap;html=1;" vertex="1" parent="wLpp5JI_pL3VEKy43RH7-118">
          <mxGeometry y="286" width="340" height="26" as="geometry" />
        </mxCell>
        <mxCell id="wLpp5JI_pL3VEKy43RH7-132" value="+ draw(sf::RenderTarget*, sf::RenderStates) const : void" style="text;strokeColor=none;fillColor=none;align=left;verticalAlign=top;spacingLeft=4;spacingRight=4;overflow=hidden;rotatable=0;points=[[0,0.5],[1,0.5]];portConstraint=eastwest;whiteSpace=wrap;html=1;" vertex="1" parent="wLpp5JI_pL3VEKy43RH7-118">
          <mxGeometry y="312" width="340" height="26" as="geometry" />
        </mxCell>
        <mxCell id="wLpp5JI_pL3VEKy43RH7-121" value="" style="line;strokeWidth=1;fillColor=none;align=left;verticalAlign=middle;spacingTop=-1;spacingLeft=3;spacingRight=3;rotatable=0;labelPosition=right;points=[];portConstraint=eastwest;strokeColor=inherit;" vertex="1" parent="wLpp5JI_pL3VEKy43RH7-118">
          <mxGeometry y="338" width="340" height="8" as="geometry" />
        </mxCell>
        <mxCell id="wLpp5JI_pL3VEKy43RH7-133" value="+ shape : sf::RectangleShape" style="text;strokeColor=none;fillColor=none;align=left;verticalAlign=top;spacingLeft=4;spacingRight=4;overflow=hidden;rotatable=0;points=[[0,0.5],[1,0.5]];portConstraint=eastwest;whiteSpace=wrap;html=1;" vertex="1" parent="wLpp5JI_pL3VEKy43RH7-118">
          <mxGeometry y="346" width="340" height="26" as="geometry" />
        </mxCell>
        <mxCell id="wLpp5JI_pL3VEKy43RH7-134" value="+ destroyed : bool" style="text;strokeColor=none;fillColor=none;align=left;verticalAlign=top;spacingLeft=4;spacingRight=4;overflow=hidden;rotatable=0;points=[[0,0.5],[1,0.5]];portConstraint=eastwest;whiteSpace=wrap;html=1;" vertex="1" parent="wLpp5JI_pL3VEKy43RH7-118">
          <mxGeometry y="372" width="340" height="26" as="geometry" />
        </mxCell>
        <mxCell id="wLpp5JI_pL3VEKy43RH7-135" value="sf::RectangleShape" style="swimlane;fontStyle=0;childLayout=stackLayout;horizontal=1;startSize=26;fillColor=none;horizontalStack=0;resizeParent=1;resizeParentMax=0;resizeLast=0;collapsible=1;marginBottom=0;whiteSpace=wrap;html=1;" vertex="1" parent="WIyWlLk6GJQsqaUBKTNV-1">
          <mxGeometry x="260" y="710" width="140" height="52" as="geometry" />
        </mxCell>
        <mxCell id="wLpp5JI_pL3VEKy43RH7-136" value="..." style="text;strokeColor=none;fillColor=none;align=left;verticalAlign=top;spacingLeft=4;spacingRight=4;overflow=hidden;rotatable=0;points=[[0,0.5],[1,0.5]];portConstraint=eastwest;whiteSpace=wrap;html=1;" vertex="1" parent="wLpp5JI_pL3VEKy43RH7-135">
          <mxGeometry y="26" width="140" height="26" as="geometry" />
        </mxCell>
        <mxCell id="wLpp5JI_pL3VEKy43RH7-137" value="sf::RenderTarget" style="swimlane;fontStyle=0;childLayout=stackLayout;horizontal=1;startSize=26;fillColor=none;horizontalStack=0;resizeParent=1;resizeParentMax=0;resizeLast=0;collapsible=1;marginBottom=0;whiteSpace=wrap;html=1;" vertex="1" parent="WIyWlLk6GJQsqaUBKTNV-1">
          <mxGeometry x="650" y="400" width="140" height="52" as="geometry" />
        </mxCell>
        <mxCell id="wLpp5JI_pL3VEKy43RH7-138" value="..." style="text;strokeColor=none;fillColor=none;align=left;verticalAlign=top;spacingLeft=4;spacingRight=4;overflow=hidden;rotatable=0;points=[[0,0.5],[1,0.5]];portConstraint=eastwest;whiteSpace=wrap;html=1;" vertex="1" parent="wLpp5JI_pL3VEKy43RH7-137">
          <mxGeometry y="26" width="140" height="26" as="geometry" />
        </mxCell>
        <mxCell id="wLpp5JI_pL3VEKy43RH7-139" value="sf::RenderStates" style="swimlane;fontStyle=0;childLayout=stackLayout;horizontal=1;startSize=26;fillColor=none;horizontalStack=0;resizeParent=1;resizeParentMax=0;resizeLast=0;collapsible=1;marginBottom=0;whiteSpace=wrap;html=1;" vertex="1" parent="WIyWlLk6GJQsqaUBKTNV-1">
          <mxGeometry x="640" y="510" width="140" height="52" as="geometry" />
        </mxCell>
        <mxCell id="wLpp5JI_pL3VEKy43RH7-140" value="..." style="text;strokeColor=none;fillColor=none;align=left;verticalAlign=top;spacingLeft=4;spacingRight=4;overflow=hidden;rotatable=0;points=[[0,0.5],[1,0.5]];portConstraint=eastwest;whiteSpace=wrap;html=1;" vertex="1" parent="wLpp5JI_pL3VEKy43RH7-139">
          <mxGeometry y="26" width="140" height="26" as="geometry" />
        </mxCell>
        <mxCell id="wLpp5JI_pL3VEKy43RH7-141" value="Ball" style="swimlane;fontStyle=1;align=center;verticalAlign=top;childLayout=stackLayout;horizontal=1;startSize=26;horizontalStack=0;resizeParent=1;resizeParentMax=0;resizeLast=0;collapsible=1;marginBottom=0;whiteSpace=wrap;html=1;" vertex="1" parent="WIyWlLk6GJQsqaUBKTNV-1">
          <mxGeometry x="1241" y="770" width="340" height="554" as="geometry" />
        </mxCell>
        <mxCell id="wLpp5JI_pL3VEKy43RH7-142" value="+ Ball(float, float)" style="text;strokeColor=none;fillColor=none;align=left;verticalAlign=top;spacingLeft=4;spacingRight=4;overflow=hidden;rotatable=0;points=[[0,0.5],[1,0.5]];portConstraint=eastwest;whiteSpace=wrap;html=1;" vertex="1" parent="wLpp5JI_pL3VEKy43RH7-141">
          <mxGeometry y="26" width="340" height="26" as="geometry" />
        </mxCell>
        <mxCell id="wLpp5JI_pL3VEKy43RH7-143" value="+ ~Ball()" style="text;strokeColor=none;fillColor=none;align=left;verticalAlign=top;spacingLeft=4;spacingRight=4;overflow=hidden;rotatable=0;points=[[0,0.5],[1,0.5]];portConstraint=eastwest;whiteSpace=wrap;html=1;" vertex="1" parent="wLpp5JI_pL3VEKy43RH7-141">
          <mxGeometry y="52" width="340" height="26" as="geometry" />
        </mxCell>
        <mxCell id="wLpp5JI_pL3VEKy43RH7-145" value="+ update() : void" style="text;strokeColor=none;fillColor=none;align=left;verticalAlign=top;spacingLeft=4;spacingRight=4;overflow=hidden;rotatable=0;points=[[0,0.5],[1,0.5]];portConstraint=eastwest;whiteSpace=wrap;html=1;" vertex="1" parent="wLpp5JI_pL3VEKy43RH7-141">
          <mxGeometry y="78" width="340" height="26" as="geometry" />
        </mxCell>
        <mxCell id="wLpp5JI_pL3VEKy43RH7-146" value="+ left() : float" style="text;strokeColor=none;fillColor=none;align=left;verticalAlign=top;spacingLeft=4;spacingRight=4;overflow=hidden;rotatable=0;points=[[0,0.5],[1,0.5]];portConstraint=eastwest;whiteSpace=wrap;html=1;" vertex="1" parent="wLpp5JI_pL3VEKy43RH7-141">
          <mxGeometry y="104" width="340" height="26" as="geometry" />
        </mxCell>
        <mxCell id="wLpp5JI_pL3VEKy43RH7-147" value="+ right() : float" style="text;strokeColor=none;fillColor=none;align=left;verticalAlign=top;spacingLeft=4;spacingRight=4;overflow=hidden;rotatable=0;points=[[0,0.5],[1,0.5]];portConstraint=eastwest;whiteSpace=wrap;html=1;" vertex="1" parent="wLpp5JI_pL3VEKy43RH7-141">
          <mxGeometry y="130" width="340" height="26" as="geometry" />
        </mxCell>
        <mxCell id="wLpp5JI_pL3VEKy43RH7-148" value="+ top() : float" style="text;strokeColor=none;fillColor=none;align=left;verticalAlign=top;spacingLeft=4;spacingRight=4;overflow=hidden;rotatable=0;points=[[0,0.5],[1,0.5]];portConstraint=eastwest;whiteSpace=wrap;html=1;" vertex="1" parent="wLpp5JI_pL3VEKy43RH7-141">
          <mxGeometry y="156" width="340" height="26" as="geometry" />
        </mxCell>
        <mxCell id="wLpp5JI_pL3VEKy43RH7-149" value="+ bottom() : float" style="text;strokeColor=none;fillColor=none;align=left;verticalAlign=top;spacingLeft=4;spacingRight=4;overflow=hidden;rotatable=0;points=[[0,0.5],[1,0.5]];portConstraint=eastwest;whiteSpace=wrap;html=1;" vertex="1" parent="wLpp5JI_pL3VEKy43RH7-141">
          <mxGeometry y="182" width="340" height="26" as="geometry" />
        </mxCell>
        <mxCell id="wLpp5JI_pL3VEKy43RH7-150" value="+ moveUp() : void" style="text;strokeColor=none;fillColor=none;align=left;verticalAlign=top;spacingLeft=4;spacingRight=4;overflow=hidden;rotatable=0;points=[[0,0.5],[1,0.5]];portConstraint=eastwest;whiteSpace=wrap;html=1;" vertex="1" parent="wLpp5JI_pL3VEKy43RH7-141">
          <mxGeometry y="208" width="340" height="26" as="geometry" />
        </mxCell>
        <mxCell id="wLpp5JI_pL3VEKy43RH7-151" value="+ moveDown() : void" style="text;strokeColor=none;fillColor=none;align=left;verticalAlign=top;spacingLeft=4;spacingRight=4;overflow=hidden;rotatable=0;points=[[0,0.5],[1,0.5]];portConstraint=eastwest;whiteSpace=wrap;html=1;" vertex="1" parent="wLpp5JI_pL3VEKy43RH7-141">
          <mxGeometry y="234" width="340" height="26" as="geometry" />
        </mxCell>
        <mxCell id="wLpp5JI_pL3VEKy43RH7-152" value="+ moveRight() : void" style="text;strokeColor=none;fillColor=none;align=left;verticalAlign=top;spacingLeft=4;spacingRight=4;overflow=hidden;rotatable=0;points=[[0,0.5],[1,0.5]];portConstraint=eastwest;whiteSpace=wrap;html=1;" vertex="1" parent="wLpp5JI_pL3VEKy43RH7-141">
          <mxGeometry y="260" width="340" height="26" as="geometry" />
        </mxCell>
        <mxCell id="wLpp5JI_pL3VEKy43RH7-153" value="+ moveLeft() : void" style="text;strokeColor=none;fillColor=none;align=left;verticalAlign=top;spacingLeft=4;spacingRight=4;overflow=hidden;rotatable=0;points=[[0,0.5],[1,0.5]];portConstraint=eastwest;whiteSpace=wrap;html=1;" vertex="1" parent="wLpp5JI_pL3VEKy43RH7-141">
          <mxGeometry y="286" width="340" height="26" as="geometry" />
        </mxCell>
        <mxCell id="wLpp5JI_pL3VEKy43RH7-154" value="+ hadHitGround() : bool" style="text;strokeColor=none;fillColor=none;align=left;verticalAlign=top;spacingLeft=4;spacingRight=4;overflow=hidden;rotatable=0;points=[[0,0.5],[1,0.5]];portConstraint=eastwest;whiteSpace=wrap;html=1;" vertex="1" parent="wLpp5JI_pL3VEKy43RH7-141">
          <mxGeometry y="312" width="340" height="26" as="geometry" />
        </mxCell>
        <mxCell id="wLpp5JI_pL3VEKy43RH7-155" value="+ myTexture(sf::Texture&amp;amp;) : void" style="text;strokeColor=none;fillColor=none;align=left;verticalAlign=top;spacingLeft=4;spacingRight=4;overflow=hidden;rotatable=0;points=[[0,0.5],[1,0.5]];portConstraint=eastwest;whiteSpace=wrap;html=1;" vertex="1" parent="wLpp5JI_pL3VEKy43RH7-141">
          <mxGeometry y="338" width="340" height="26" as="geometry" />
        </mxCell>
        <mxCell id="wLpp5JI_pL3VEKy43RH7-156" value="+ getPosition() : sf::Vector2f" style="text;strokeColor=none;fillColor=none;align=left;verticalAlign=top;spacingLeft=4;spacingRight=4;overflow=hidden;rotatable=0;points=[[0,0.5],[1,0.5]];portConstraint=eastwest;whiteSpace=wrap;html=1;" vertex="1" parent="wLpp5JI_pL3VEKy43RH7-141">
          <mxGeometry y="364" width="340" height="26" as="geometry" />
        </mxCell>
        <mxCell id="wLpp5JI_pL3VEKy43RH7-157" value="+ draw(sf::RenderTarget&amp;amp;, sf::RenderStates) const : void" style="text;strokeColor=none;fillColor=none;align=left;verticalAlign=top;spacingLeft=4;spacingRight=4;overflow=hidden;rotatable=0;points=[[0,0.5],[1,0.5]];portConstraint=eastwest;whiteSpace=wrap;html=1;" vertex="1" parent="wLpp5JI_pL3VEKy43RH7-141">
          <mxGeometry y="390" width="340" height="26" as="geometry" />
        </mxCell>
        <mxCell id="wLpp5JI_pL3VEKy43RH7-144" value="" style="line;strokeWidth=1;fillColor=none;align=left;verticalAlign=middle;spacingTop=-1;spacingLeft=3;spacingRight=3;rotatable=0;labelPosition=right;points=[];portConstraint=eastwest;strokeColor=inherit;" vertex="1" parent="wLpp5JI_pL3VEKy43RH7-141">
          <mxGeometry y="416" width="340" height="8" as="geometry" />
        </mxCell>
        <mxCell id="wLpp5JI_pL3VEKy43RH7-158" value="+ player : sf::CircleShape" style="text;strokeColor=none;fillColor=none;align=left;verticalAlign=top;spacingLeft=4;spacingRight=4;overflow=hidden;rotatable=0;points=[[0,0.5],[1,0.5]];portConstraint=eastwest;whiteSpace=wrap;html=1;" vertex="1" parent="wLpp5JI_pL3VEKy43RH7-141">
          <mxGeometry y="424" width="340" height="26" as="geometry" />
        </mxCell>
        <mxCell id="wLpp5JI_pL3VEKy43RH7-159" value="+ circleRadius : const float" style="text;strokeColor=none;fillColor=none;align=left;verticalAlign=top;spacingLeft=4;spacingRight=4;overflow=hidden;rotatable=0;points=[[0,0.5],[1,0.5]];portConstraint=eastwest;whiteSpace=wrap;html=1;" vertex="1" parent="wLpp5JI_pL3VEKy43RH7-141">
          <mxGeometry y="450" width="340" height="26" as="geometry" />
        </mxCell>
        <mxCell id="wLpp5JI_pL3VEKy43RH7-160" value="+ spriteVelocity : const float" style="text;strokeColor=none;fillColor=none;align=left;verticalAlign=top;spacingLeft=4;spacingRight=4;overflow=hidden;rotatable=0;points=[[0,0.5],[1,0.5]];portConstraint=eastwest;whiteSpace=wrap;html=1;" vertex="1" parent="wLpp5JI_pL3VEKy43RH7-141">
          <mxGeometry y="476" width="340" height="26" as="geometry" />
        </mxCell>
        <mxCell id="wLpp5JI_pL3VEKy43RH7-161" value="+ velocityVector : sf::Vector2f" style="text;strokeColor=none;fillColor=none;align=left;verticalAlign=top;spacingLeft=4;spacingRight=4;overflow=hidden;rotatable=0;points=[[0,0.5],[1,0.5]];portConstraint=eastwest;whiteSpace=wrap;html=1;" vertex="1" parent="wLpp5JI_pL3VEKy43RH7-141">
          <mxGeometry y="502" width="340" height="26" as="geometry" />
        </mxCell>
        <mxCell id="wLpp5JI_pL3VEKy43RH7-162" value="+ hitGround : bool" style="text;strokeColor=none;fillColor=none;align=left;verticalAlign=top;spacingLeft=4;spacingRight=4;overflow=hidden;rotatable=0;points=[[0,0.5],[1,0.5]];portConstraint=eastwest;whiteSpace=wrap;html=1;" vertex="1" parent="wLpp5JI_pL3VEKy43RH7-141">
          <mxGeometry y="528" width="340" height="26" as="geometry" />
        </mxCell>
        <mxCell id="wLpp5JI_pL3VEKy43RH7-163" value="sf::CircleShape" style="swimlane;fontStyle=0;childLayout=stackLayout;horizontal=1;startSize=26;fillColor=none;horizontalStack=0;resizeParent=1;resizeParentMax=0;resizeLast=0;collapsible=1;marginBottom=0;whiteSpace=wrap;html=1;" vertex="1" parent="WIyWlLk6GJQsqaUBKTNV-1">
          <mxGeometry x="890" y="990" width="140" height="52" as="geometry" />
        </mxCell>
        <mxCell id="wLpp5JI_pL3VEKy43RH7-164" value="..." style="text;strokeColor=none;fillColor=none;align=left;verticalAlign=top;spacingLeft=4;spacingRight=4;overflow=hidden;rotatable=0;points=[[0,0.5],[1,0.5]];portConstraint=eastwest;whiteSpace=wrap;html=1;" vertex="1" parent="wLpp5JI_pL3VEKy43RH7-163">
          <mxGeometry y="26" width="140" height="26" as="geometry" />
        </mxCell>
        <mxCell id="wLpp5JI_pL3VEKy43RH7-165" value="std::string" style="swimlane;fontStyle=0;childLayout=stackLayout;horizontal=1;startSize=26;fillColor=none;horizontalStack=0;resizeParent=1;resizeParentMax=0;resizeLast=0;collapsible=1;marginBottom=0;whiteSpace=wrap;html=1;" vertex="1" parent="WIyWlLk6GJQsqaUBKTNV-1">
          <mxGeometry x="30" y="740" width="140" height="52" as="geometry" />
        </mxCell>
        <mxCell id="wLpp5JI_pL3VEKy43RH7-166" value="..." style="text;strokeColor=none;fillColor=none;align=left;verticalAlign=top;spacingLeft=4;spacingRight=4;overflow=hidden;rotatable=0;points=[[0,0.5],[1,0.5]];portConstraint=eastwest;whiteSpace=wrap;html=1;" vertex="1" parent="wLpp5JI_pL3VEKy43RH7-165">
          <mxGeometry y="26" width="140" height="26" as="geometry" />
        </mxCell>
        <mxCell id="wLpp5JI_pL3VEKy43RH7-171" value="" style="endArrow=open;endFill=0;endSize=24;html=1;rounded=0;entryX=0.5;entryY=0;entryDx=0;entryDy=0;exitX=0.513;exitY=1.088;exitDx=0;exitDy=0;exitPerimeter=0;" edge="1" parent="WIyWlLk6GJQsqaUBKTNV-1" source="wLpp5JI_pL3VEKy43RH7-65" target="wLpp5JI_pL3VEKy43RH7-165">
          <mxGeometry width="160" relative="1" as="geometry">
            <mxPoint x="90" y="650" as="sourcePoint" />
            <mxPoint x="250" y="650" as="targetPoint" />
            <Array as="points">
              <mxPoint x="110" y="650" />
            </Array>
          </mxGeometry>
        </mxCell>
        <mxCell id="wLpp5JI_pL3VEKy43RH7-172" value="" style="endArrow=open;endFill=0;endSize=24;html=1;rounded=0;entryX=0.496;entryY=1.015;entryDx=0;entryDy=0;entryPerimeter=0;exitX=1;exitY=0.5;exitDx=0;exitDy=0;" edge="1" parent="WIyWlLk6GJQsqaUBKTNV-1" source="wLpp5JI_pL3VEKy43RH7-50" target="wLpp5JI_pL3VEKy43RH7-93">
          <mxGeometry width="160" relative="1" as="geometry">
            <mxPoint x="430" y="190" as="sourcePoint" />
            <mxPoint x="590" y="190" as="targetPoint" />
            <Array as="points">
              <mxPoint x="500" y="150" />
            </Array>
          </mxGeometry>
        </mxCell>
        <mxCell id="wLpp5JI_pL3VEKy43RH7-174" value="" style="endArrow=open;endFill=0;endSize=24;html=1;rounded=0;exitX=1;exitY=0.5;exitDx=0;exitDy=0;entryX=0;entryY=0.5;entryDx=0;entryDy=0;" edge="1" parent="WIyWlLk6GJQsqaUBKTNV-1" source="wLpp5JI_pL3VEKy43RH7-59" target="wLpp5JI_pL3VEKy43RH7-138">
          <mxGeometry width="160" relative="1" as="geometry">
            <mxPoint x="440" y="420" as="sourcePoint" />
            <mxPoint x="600" y="420" as="targetPoint" />
          </mxGeometry>
        </mxCell>
        <mxCell id="wLpp5JI_pL3VEKy43RH7-175" value="" style="endArrow=open;endFill=0;endSize=24;html=1;rounded=0;exitX=1;exitY=0.5;exitDx=0;exitDy=0;entryX=0;entryY=0.5;entryDx=0;entryDy=0;" edge="1" parent="WIyWlLk6GJQsqaUBKTNV-1" source="wLpp5JI_pL3VEKy43RH7-61" target="wLpp5JI_pL3VEKy43RH7-140">
          <mxGeometry width="160" relative="1" as="geometry">
            <mxPoint x="420" y="510" as="sourcePoint" />
            <mxPoint x="580" y="510" as="targetPoint" />
          </mxGeometry>
        </mxCell>
        <mxCell id="wLpp5JI_pL3VEKy43RH7-179" value="" style="endArrow=open;endFill=0;endSize=24;html=1;rounded=0;entryX=1;entryY=0.5;entryDx=0;entryDy=0;exitX=0;exitY=0.5;exitDx=0;exitDy=0;" edge="1" parent="WIyWlLk6GJQsqaUBKTNV-1" source="wLpp5JI_pL3VEKy43RH7-122" target="wLpp5JI_pL3VEKy43RH7-26">
          <mxGeometry width="160" relative="1" as="geometry">
            <mxPoint x="930" y="300" as="sourcePoint" />
            <mxPoint x="1090" y="300" as="targetPoint" />
          </mxGeometry>
        </mxCell>
        <mxCell id="wLpp5JI_pL3VEKy43RH7-180" value="" style="endArrow=open;endFill=0;endSize=24;html=1;rounded=0;entryX=1;entryY=0.25;entryDx=0;entryDy=0;exitX=0;exitY=0.077;exitDx=0;exitDy=0;exitPerimeter=0;" edge="1" parent="WIyWlLk6GJQsqaUBKTNV-1" source="wLpp5JI_pL3VEKy43RH7-120" target="wLpp5JI_pL3VEKy43RH7-92">
          <mxGeometry width="160" relative="1" as="geometry">
            <mxPoint x="960" y="270" as="sourcePoint" />
            <mxPoint x="1120" y="270" as="targetPoint" />
            <Array as="points">
              <mxPoint x="950" y="160" />
              <mxPoint x="700" y="130" />
            </Array>
          </mxGeometry>
        </mxCell>
        <mxCell id="wLpp5JI_pL3VEKy43RH7-181" value="" style="endArrow=open;endFill=0;endSize=24;html=1;rounded=0;entryX=0.5;entryY=0;entryDx=0;entryDy=0;exitX=0;exitY=0.5;exitDx=0;exitDy=0;" edge="1" parent="WIyWlLk6GJQsqaUBKTNV-1" source="wLpp5JI_pL3VEKy43RH7-123" target="wLpp5JI_pL3VEKy43RH7-137">
          <mxGeometry width="160" relative="1" as="geometry">
            <mxPoint x="900" y="350" as="sourcePoint" />
            <mxPoint x="1060" y="350" as="targetPoint" />
            <Array as="points">
              <mxPoint x="820" y="270" />
            </Array>
          </mxGeometry>
        </mxCell>
        <mxCell id="wLpp5JI_pL3VEKy43RH7-182" value="" style="endArrow=open;endFill=0;endSize=24;html=1;rounded=0;entryX=1;entryY=0;entryDx=0;entryDy=0;exitX=0;exitY=0.5;exitDx=0;exitDy=0;" edge="1" parent="WIyWlLk6GJQsqaUBKTNV-1" source="wLpp5JI_pL3VEKy43RH7-126" target="wLpp5JI_pL3VEKy43RH7-137">
          <mxGeometry width="160" relative="1" as="geometry">
            <mxPoint x="940" y="330" as="sourcePoint" />
            <mxPoint x="1100" y="330" as="targetPoint" />
            <Array as="points">
              <mxPoint x="940" y="310" />
            </Array>
          </mxGeometry>
        </mxCell>
        <mxCell id="wLpp5JI_pL3VEKy43RH7-186" value="" style="endArrow=open;endFill=0;endSize=24;html=1;rounded=0;entryX=1;entryY=0.5;entryDx=0;entryDy=0;exitX=0;exitY=0.5;exitDx=0;exitDy=0;" edge="1" parent="WIyWlLk6GJQsqaUBKTNV-1" source="wLpp5JI_pL3VEKy43RH7-142" target="wLpp5JI_pL3VEKy43RH7-93">
          <mxGeometry width="160" relative="1" as="geometry">
            <mxPoint x="900" y="880" as="sourcePoint" />
            <mxPoint x="920" y="670" as="targetPoint" />
            <Array as="points">
              <mxPoint x="1180" y="690" />
              <mxPoint x="870" y="170" />
            </Array>
          </mxGeometry>
        </mxCell>
        <mxCell id="wLpp5JI_pL3VEKy43RH7-189" value="" style="endArrow=open;endFill=0;endSize=24;html=1;rounded=0;entryX=1;entryY=0.5;entryDx=0;entryDy=0;exitX=0;exitY=0.5;exitDx=0;exitDy=0;" edge="1" parent="WIyWlLk6GJQsqaUBKTNV-1" source="wLpp5JI_pL3VEKy43RH7-147" target="wLpp5JI_pL3VEKy43RH7-137">
          <mxGeometry width="160" relative="1" as="geometry">
            <mxPoint x="980" y="880" as="sourcePoint" />
            <mxPoint x="1140" y="880" as="targetPoint" />
          </mxGeometry>
        </mxCell>
        <mxCell id="wLpp5JI_pL3VEKy43RH7-190" value="" style="endArrow=open;endFill=0;endSize=24;html=1;rounded=0;exitX=0;exitY=0.5;exitDx=0;exitDy=0;entryX=1;entryY=0.5;entryDx=0;entryDy=0;" edge="1" parent="WIyWlLk6GJQsqaUBKTNV-1" source="wLpp5JI_pL3VEKy43RH7-149" target="wLpp5JI_pL3VEKy43RH7-140">
          <mxGeometry width="160" relative="1" as="geometry">
            <mxPoint x="950" y="960" as="sourcePoint" />
            <mxPoint x="760" y="810" as="targetPoint" />
          </mxGeometry>
        </mxCell>
        <mxCell id="wLpp5JI_pL3VEKy43RH7-191" value="" style="endArrow=open;endFill=0;endSize=24;html=1;rounded=0;entryX=1;entryY=0;entryDx=0;entryDy=0;exitX=0;exitY=0.5;exitDx=0;exitDy=0;" edge="1" parent="WIyWlLk6GJQsqaUBKTNV-1" source="wLpp5JI_pL3VEKy43RH7-131" target="wLpp5JI_pL3VEKy43RH7-139">
          <mxGeometry width="160" relative="1" as="geometry">
            <mxPoint x="1010" y="870" as="sourcePoint" />
            <mxPoint x="1170" y="870" as="targetPoint" />
          </mxGeometry>
        </mxCell>
        <mxCell id="wLpp5JI_pL3VEKy43RH7-195" value="" style="endArrow=open;endFill=0;endSize=24;html=1;rounded=0;entryX=0;entryY=0.5;entryDx=0;entryDy=0;exitX=1.003;exitY=-0.038;exitDx=0;exitDy=0;exitPerimeter=0;" edge="1" parent="WIyWlLk6GJQsqaUBKTNV-1" source="wLpp5JI_pL3VEKy43RH7-82" target="wLpp5JI_pL3VEKy43RH7-160">
          <mxGeometry width="160" relative="1" as="geometry">
            <mxPoint x="650" y="1380" as="sourcePoint" />
            <mxPoint x="1110" y="1300" as="targetPoint" />
          </mxGeometry>
        </mxCell>
        <mxCell id="wLpp5JI_pL3VEKy43RH7-196" value="" style="endArrow=open;endFill=0;endSize=24;html=1;rounded=0;entryX=0;entryY=0.5;entryDx=0;entryDy=0;exitX=0;exitY=0;exitDx=0;exitDy=0;" edge="1" parent="WIyWlLk6GJQsqaUBKTNV-1" source="wLpp5JI_pL3VEKy43RH7-13" target="wLpp5JI_pL3VEKy43RH7-65">
          <mxGeometry width="160" relative="1" as="geometry">
            <mxPoint x="-150" y="850" as="sourcePoint" />
            <mxPoint x="10" y="850" as="targetPoint" />
            <Array as="points">
              <mxPoint x="-80" y="910" />
            </Array>
          </mxGeometry>
        </mxCell>
        <mxCell id="wLpp5JI_pL3VEKy43RH7-197" value="" style="endArrow=open;endFill=0;endSize=24;html=1;rounded=0;exitX=1;exitY=0;exitDx=0;exitDy=0;entryX=0.021;entryY=1.003;entryDx=0;entryDy=0;entryPerimeter=0;" edge="1" parent="WIyWlLk6GJQsqaUBKTNV-1" source="wLpp5JI_pL3VEKy43RH7-13" target="wLpp5JI_pL3VEKy43RH7-134">
          <mxGeometry width="160" relative="1" as="geometry">
            <mxPoint x="450" y="1290" as="sourcePoint" />
            <mxPoint x="740" y="1090" as="targetPoint" />
          </mxGeometry>
        </mxCell>
        <mxCell id="wLpp5JI_pL3VEKy43RH7-198" value="" style="endArrow=open;endFill=0;endSize=24;html=1;rounded=0;entryX=1;entryY=0.5;entryDx=0;entryDy=0;exitX=0.75;exitY=0;exitDx=0;exitDy=0;" edge="1" parent="WIyWlLk6GJQsqaUBKTNV-1" source="wLpp5JI_pL3VEKy43RH7-13" target="wLpp5JI_pL3VEKy43RH7-166">
          <mxGeometry width="160" relative="1" as="geometry">
            <mxPoint x="340" y="1120" as="sourcePoint" />
            <mxPoint x="500" y="1120" as="targetPoint" />
            <Array as="points">
              <mxPoint x="340" y="1000" />
            </Array>
          </mxGeometry>
        </mxCell>
        <mxCell id="wLpp5JI_pL3VEKy43RH7-199" value="" style="endArrow=open;endFill=0;endSize=24;html=1;rounded=0;entryX=0.143;entryY=0.923;entryDx=0;entryDy=0;exitX=0.879;exitY=-0.002;exitDx=0;exitDy=0;exitPerimeter=0;entryPerimeter=0;" edge="1" parent="WIyWlLk6GJQsqaUBKTNV-1" source="wLpp5JI_pL3VEKy43RH7-13" target="wLpp5JI_pL3VEKy43RH7-93">
          <mxGeometry width="160" relative="1" as="geometry">
            <mxPoint x="410" y="1220" as="sourcePoint" />
            <mxPoint x="430" y="870" as="targetPoint" />
          </mxGeometry>
        </mxCell>
        <mxCell id="wLpp5JI_pL3VEKy43RH7-200" value="" style="endArrow=open;endFill=0;endSize=24;html=1;rounded=0;entryX=1;entryY=0.5;entryDx=0;entryDy=0;exitX=0;exitY=0.5;exitDx=0;exitDy=0;" edge="1" parent="WIyWlLk6GJQsqaUBKTNV-1" source="wLpp5JI_pL3VEKy43RH7-83" target="wLpp5JI_pL3VEKy43RH7-100">
          <mxGeometry width="160" relative="1" as="geometry">
            <mxPoint x="-210" y="1660" as="sourcePoint" />
            <mxPoint x="-50" y="1660" as="targetPoint" />
          </mxGeometry>
        </mxCell>
        <mxCell id="wLpp5JI_pL3VEKy43RH7-201" value="" style="endArrow=open;endFill=0;endSize=24;html=1;rounded=0;entryX=0.5;entryY=0;entryDx=0;entryDy=0;exitX=0;exitY=0.5;exitDx=0;exitDy=0;" edge="1" parent="WIyWlLk6GJQsqaUBKTNV-1" source="wLpp5JI_pL3VEKy43RH7-86" target="wLpp5JI_pL3VEKy43RH7-96">
          <mxGeometry width="160" relative="1" as="geometry">
            <mxPoint x="-190" y="1710" as="sourcePoint" />
            <mxPoint x="-30" y="1710" as="targetPoint" />
          </mxGeometry>
        </mxCell>
        <mxCell id="wLpp5JI_pL3VEKy43RH7-203" value="std::vector" style="swimlane;fontStyle=0;childLayout=stackLayout;horizontal=1;startSize=26;fillColor=none;horizontalStack=0;resizeParent=1;resizeParentMax=0;resizeLast=0;collapsible=1;marginBottom=0;whiteSpace=wrap;html=1;" vertex="1" parent="WIyWlLk6GJQsqaUBKTNV-1">
          <mxGeometry x="-270" y="1960" width="140" height="52" as="geometry" />
        </mxCell>
        <mxCell id="wLpp5JI_pL3VEKy43RH7-204" value="..." style="text;strokeColor=none;fillColor=none;align=left;verticalAlign=top;spacingLeft=4;spacingRight=4;overflow=hidden;rotatable=0;points=[[0,0.5],[1,0.5]];portConstraint=eastwest;whiteSpace=wrap;html=1;" vertex="1" parent="wLpp5JI_pL3VEKy43RH7-203">
          <mxGeometry y="26" width="140" height="26" as="geometry" />
        </mxCell>
        <mxCell id="wLpp5JI_pL3VEKy43RH7-208" value="" style="endArrow=open;endFill=0;endSize=24;html=1;rounded=0;entryX=1;entryY=0.5;entryDx=0;entryDy=0;exitX=0.25;exitY=0;exitDx=0;exitDy=0;" edge="1" parent="WIyWlLk6GJQsqaUBKTNV-1" source="wLpp5JI_pL3VEKy43RH7-17" target="wLpp5JI_pL3VEKy43RH7-65">
          <mxGeometry width="160" relative="1" as="geometry">
            <mxPoint x="690" y="1450" as="sourcePoint" />
            <mxPoint x="850" y="1450" as="targetPoint" />
            <Array as="points">
              <mxPoint x="560" y="720" />
            </Array>
          </mxGeometry>
        </mxCell>
        <mxCell id="wLpp5JI_pL3VEKy43RH7-210" value="" style="endArrow=open;endFill=0;endSize=24;html=1;rounded=0;entryX=0;entryY=0.5;entryDx=0;entryDy=0;exitX=1;exitY=0.5;exitDx=0;exitDy=0;" edge="1" parent="WIyWlLk6GJQsqaUBKTNV-1" source="wLpp5JI_pL3VEKy43RH7-54" target="wLpp5JI_pL3VEKy43RH7-28">
          <mxGeometry width="160" relative="1" as="geometry">
            <mxPoint x="400" y="270" as="sourcePoint" />
            <mxPoint x="560" y="270" as="targetPoint" />
          </mxGeometry>
        </mxCell>
        <mxCell id="wLpp5JI_pL3VEKy43RH7-211" value="" style="endArrow=open;endFill=0;endSize=24;html=1;rounded=0;entryX=0.5;entryY=0;entryDx=0;entryDy=0;" edge="1" parent="WIyWlLk6GJQsqaUBKTNV-1" source="wLpp5JI_pL3VEKy43RH7-65" target="wLpp5JI_pL3VEKy43RH7-135">
          <mxGeometry width="160" relative="1" as="geometry">
            <mxPoint x="190" y="660" as="sourcePoint" />
            <mxPoint x="350" y="660" as="targetPoint" />
          </mxGeometry>
        </mxCell>
        <mxCell id="wLpp5JI_pL3VEKy43RH7-212" value="" style="endArrow=open;endFill=0;endSize=24;html=1;rounded=0;entryX=1;entryY=0;entryDx=0;entryDy=0;exitX=0;exitY=0.5;exitDx=0;exitDy=0;" edge="1" parent="WIyWlLk6GJQsqaUBKTNV-1" source="wLpp5JI_pL3VEKy43RH7-133" target="wLpp5JI_pL3VEKy43RH7-135">
          <mxGeometry width="160" relative="1" as="geometry">
            <mxPoint x="610" y="630" as="sourcePoint" />
            <mxPoint x="770" y="630" as="targetPoint" />
          </mxGeometry>
        </mxCell>
        <mxCell id="wLpp5JI_pL3VEKy43RH7-213" value="" style="endArrow=open;endFill=0;endSize=24;html=1;rounded=0;entryX=1;entryY=0.5;entryDx=0;entryDy=0;exitX=0;exitY=0.5;exitDx=0;exitDy=0;" edge="1" parent="WIyWlLk6GJQsqaUBKTNV-1" source="wLpp5JI_pL3VEKy43RH7-145" target="wLpp5JI_pL3VEKy43RH7-67">
          <mxGeometry width="160" relative="1" as="geometry">
            <mxPoint x="970" y="560" as="sourcePoint" />
            <mxPoint x="1130" y="560" as="targetPoint" />
          </mxGeometry>
        </mxCell>
        <mxCell id="wLpp5JI_pL3VEKy43RH7-214" value="" style="endArrow=open;endFill=0;endSize=24;html=1;rounded=0;entryX=0.5;entryY=0;entryDx=0;entryDy=0;exitX=0;exitY=0.5;exitDx=0;exitDy=0;" edge="1" parent="WIyWlLk6GJQsqaUBKTNV-1" source="wLpp5JI_pL3VEKy43RH7-91" target="wLpp5JI_pL3VEKy43RH7-203">
          <mxGeometry width="160" relative="1" as="geometry">
            <mxPoint x="-130" y="1880" as="sourcePoint" />
            <mxPoint x="30" y="1880" as="targetPoint" />
          </mxGeometry>
        </mxCell>
        <mxCell id="wLpp5JI_pL3VEKy43RH7-215" value="" style="endArrow=open;endFill=0;endSize=24;html=1;rounded=0;entryX=1;entryY=0.5;entryDx=0;entryDy=0;exitX=0;exitY=0.5;exitDx=0;exitDy=0;" edge="1" parent="WIyWlLk6GJQsqaUBKTNV-1" source="wLpp5JI_pL3VEKy43RH7-150" target="wLpp5JI_pL3VEKy43RH7-164">
          <mxGeometry width="160" relative="1" as="geometry">
            <mxPoint x="1060" y="1120" as="sourcePoint" />
            <mxPoint x="1220" y="1120" as="targetPoint" />
          </mxGeometry>
        </mxCell>
        <mxCell id="wLpp5JI_pL3VEKy43RH7-216" value="Extends" style="endArrow=block;endSize=16;endFill=0;html=1;rounded=0;exitX=0.509;exitY=1.129;exitDx=0;exitDy=0;exitPerimeter=0;" edge="1" parent="WIyWlLk6GJQsqaUBKTNV-1" source="wLpp5JI_pL3VEKy43RH7-109">
          <mxGeometry width="160" relative="1" as="geometry">
            <mxPoint x="180" y="1930" as="sourcePoint" />
            <mxPoint x="490" y="2060" as="targetPoint" />
          </mxGeometry>
        </mxCell>
        <mxCell id="wLpp5JI_pL3VEKy43RH7-217" value="Extends" style="endArrow=block;endSize=16;endFill=0;html=1;rounded=0;entryX=1;entryY=0;entryDx=0;entryDy=0;exitX=0.506;exitY=1.228;exitDx=0;exitDy=0;exitPerimeter=0;" edge="1" parent="WIyWlLk6GJQsqaUBKTNV-1" source="wLpp5JI_pL3VEKy43RH7-70" target="wLpp5JI_pL3VEKy43RH7-71">
          <mxGeometry width="160" relative="1" as="geometry">
            <mxPoint x="610" y="1920" as="sourcePoint" />
            <mxPoint x="770" y="1920" as="targetPoint" />
          </mxGeometry>
        </mxCell>
        <mxCell id="wLpp5JI_pL3VEKy43RH7-218" value="Extends" style="endArrow=block;endSize=16;endFill=0;html=1;rounded=0;entryX=0;entryY=0;entryDx=0;entryDy=0;exitX=1;exitY=0;exitDx=0;exitDy=0;" edge="1" parent="WIyWlLk6GJQsqaUBKTNV-1" source="wLpp5JI_pL3VEKy43RH7-42" target="wLpp5JI_pL3VEKy43RH7-75">
          <mxGeometry width="160" relative="1" as="geometry">
            <mxPoint x="400" y="-30" as="sourcePoint" />
            <mxPoint x="560" y="-30" as="targetPoint" />
            <Array as="points">
              <mxPoint x="530" y="-50" />
            </Array>
          </mxGeometry>
        </mxCell>
        <mxCell id="wLpp5JI_pL3VEKy43RH7-219" value="Extends" style="endArrow=block;endSize=16;endFill=0;html=1;rounded=0;entryX=1;entryY=0;entryDx=0;entryDy=0;exitX=0;exitY=0;exitDx=0;exitDy=0;" edge="1" parent="WIyWlLk6GJQsqaUBKTNV-1" source="wLpp5JI_pL3VEKy43RH7-118" target="wLpp5JI_pL3VEKy43RH7-75">
          <mxGeometry width="160" relative="1" as="geometry">
            <mxPoint x="1120" y="-90" as="sourcePoint" />
            <mxPoint x="1280" y="-90" as="targetPoint" />
          </mxGeometry>
        </mxCell>
        <mxCell id="wLpp5JI_pL3VEKy43RH7-220" value="Extends" style="endArrow=block;endSize=16;endFill=0;html=1;rounded=0;entryX=1.009;entryY=1.045;entryDx=0;entryDy=0;entryPerimeter=0;exitX=0.25;exitY=0;exitDx=0;exitDy=0;" edge="1" parent="WIyWlLk6GJQsqaUBKTNV-1" source="wLpp5JI_pL3VEKy43RH7-141" target="wLpp5JI_pL3VEKy43RH7-76">
          <mxGeometry width="160" relative="1" as="geometry">
            <mxPoint x="1010" y="350" as="sourcePoint" />
            <mxPoint x="1170" y="350" as="targetPoint" />
          </mxGeometry>
        </mxCell>
        <mxCell id="wLpp5JI_pL3VEKy43RH7-223" value="sf::Event" style="swimlane;fontStyle=0;childLayout=stackLayout;horizontal=1;startSize=26;fillColor=none;horizontalStack=0;resizeParent=1;resizeParentMax=0;resizeLast=0;collapsible=1;marginBottom=0;whiteSpace=wrap;html=1;" vertex="1" parent="WIyWlLk6GJQsqaUBKTNV-1">
          <mxGeometry x="-300" y="300" width="140" height="52" as="geometry" />
        </mxCell>
        <mxCell id="wLpp5JI_pL3VEKy43RH7-224" value="..." style="text;strokeColor=none;fillColor=none;align=left;verticalAlign=top;spacingLeft=4;spacingRight=4;overflow=hidden;rotatable=0;points=[[0,0.5],[1,0.5]];portConstraint=eastwest;whiteSpace=wrap;html=1;" vertex="1" parent="wLpp5JI_pL3VEKy43RH7-223">
          <mxGeometry y="26" width="140" height="26" as="geometry" />
        </mxCell>
        <mxCell id="wLpp5JI_pL3VEKy43RH7-225" value="sf::RenderWindow" style="swimlane;fontStyle=0;childLayout=stackLayout;horizontal=1;startSize=26;fillColor=none;horizontalStack=0;resizeParent=1;resizeParentMax=0;resizeLast=0;collapsible=1;marginBottom=0;whiteSpace=wrap;html=1;" vertex="1" parent="WIyWlLk6GJQsqaUBKTNV-1">
          <mxGeometry x="-650" y="300" width="140" height="52" as="geometry" />
        </mxCell>
        <mxCell id="wLpp5JI_pL3VEKy43RH7-226" value="..." style="text;strokeColor=none;fillColor=none;align=left;verticalAlign=top;spacingLeft=4;spacingRight=4;overflow=hidden;rotatable=0;points=[[0,0.5],[1,0.5]];portConstraint=eastwest;whiteSpace=wrap;html=1;" vertex="1" parent="wLpp5JI_pL3VEKy43RH7-225">
          <mxGeometry y="26" width="140" height="26" as="geometry" />
        </mxCell>
        <mxCell id="wLpp5JI_pL3VEKy43RH7-227" value="Use" style="endArrow=open;endSize=12;dashed=1;html=1;rounded=0;entryX=0.483;entryY=1.141;entryDx=0;entryDy=0;entryPerimeter=0;exitX=0;exitY=0;exitDx=0;exitDy=0;" edge="1" parent="WIyWlLk6GJQsqaUBKTNV-1" source="wLpp5JI_pL3VEKy43RH7-111" target="wLpp5JI_pL3VEKy43RH7-226">
          <mxGeometry width="160" relative="1" as="geometry">
            <mxPoint x="-620" y="510" as="sourcePoint" />
            <mxPoint x="-460" y="510" as="targetPoint" />
          </mxGeometry>
        </mxCell>
        <mxCell id="wLpp5JI_pL3VEKy43RH7-229" value="Use" style="endArrow=open;endSize=12;dashed=1;html=1;rounded=0;entryX=0.06;entryY=0.987;entryDx=0;entryDy=0;entryPerimeter=0;exitX=1;exitY=0;exitDx=0;exitDy=0;" edge="1" parent="WIyWlLk6GJQsqaUBKTNV-1" source="wLpp5JI_pL3VEKy43RH7-111" target="wLpp5JI_pL3VEKy43RH7-224">
          <mxGeometry width="160" relative="1" as="geometry">
            <mxPoint x="-480" y="490" as="sourcePoint" />
            <mxPoint x="-320" y="490" as="targetPoint" />
          </mxGeometry>
        </mxCell>
        <mxCell id="wLpp5JI_pL3VEKy43RH7-231" value="Use" style="endArrow=open;endSize=12;dashed=1;html=1;rounded=0;entryX=0;entryY=0;entryDx=0;entryDy=0;exitX=0.5;exitY=0;exitDx=0;exitDy=0;" edge="1" parent="WIyWlLk6GJQsqaUBKTNV-1" source="wLpp5JI_pL3VEKy43RH7-111" target="wLpp5JI_pL3VEKy43RH7-92">
          <mxGeometry width="160" relative="1" as="geometry">
            <mxPoint x="-220" y="70" as="sourcePoint" />
            <mxPoint x="-60" y="70" as="targetPoint" />
            <Array as="points">
              <mxPoint x="-380" y="60" />
            </Array>
          </mxGeometry>
        </mxCell>
        <mxCell id="wLpp5JI_pL3VEKy43RH7-232" value="Use" style="endArrow=open;endSize=12;dashed=1;html=1;rounded=0;entryX=0;entryY=0.5;entryDx=0;entryDy=0;exitX=1.018;exitY=-0.171;exitDx=0;exitDy=0;exitPerimeter=0;" edge="1" parent="WIyWlLk6GJQsqaUBKTNV-1" source="wLpp5JI_pL3VEKy43RH7-115" target="wLpp5JI_pL3VEKy43RH7-166">
          <mxGeometry width="160" relative="1" as="geometry">
            <mxPoint x="-360" y="850" as="sourcePoint" />
            <mxPoint x="-200" y="850" as="targetPoint" />
          </mxGeometry>
        </mxCell>
        <mxCell id="wLpp5JI_pL3VEKy43RH7-233" value="Use" style="endArrow=open;endSize=12;dashed=1;html=1;rounded=0;entryX=0;entryY=0;entryDx=0;entryDy=0;exitX=0;exitY=0.5;exitDx=0;exitDy=0;" edge="1" parent="WIyWlLk6GJQsqaUBKTNV-1" source="wLpp5JI_pL3VEKy43RH7-117" target="wLpp5JI_pL3VEKy43RH7-96">
          <mxGeometry width="160" relative="1" as="geometry">
            <mxPoint x="-460" y="860" as="sourcePoint" />
            <mxPoint x="-300" y="860" as="targetPoint" />
          </mxGeometry>
        </mxCell>
        <mxCell id="wLpp5JI_pL3VEKy43RH7-234" value="Use" style="endArrow=open;endSize=12;dashed=1;html=1;rounded=0;entryX=0;entryY=0;entryDx=0;entryDy=0;" edge="1" parent="WIyWlLk6GJQsqaUBKTNV-1" source="wLpp5JI_pL3VEKy43RH7-117" target="wLpp5JI_pL3VEKy43RH7-100">
          <mxGeometry width="160" relative="1" as="geometry">
            <mxPoint x="-680" y="1470" as="sourcePoint" />
            <mxPoint x="-320" y="1780" as="targetPoint" />
          </mxGeometry>
        </mxCell>
        <mxCell id="wLpp5JI_pL3VEKy43RH7-235" value="Use" style="endArrow=open;endSize=12;dashed=1;html=1;rounded=0;entryX=0;entryY=0.5;entryDx=0;entryDy=0;exitX=0;exitY=0.5;exitDx=0;exitDy=0;" edge="1" parent="WIyWlLk6GJQsqaUBKTNV-1" source="wLpp5JI_pL3VEKy43RH7-117" target="wLpp5JI_pL3VEKy43RH7-72">
          <mxGeometry width="160" relative="1" as="geometry">
            <mxPoint x="-560" y="1300" as="sourcePoint" />
            <mxPoint x="220" y="2120" as="targetPoint" />
            <Array as="points">
              <mxPoint x="-470" y="2110" />
            </Array>
          </mxGeometry>
        </mxCell>
        <mxCell id="wLpp5JI_pL3VEKy43RH7-238" value="Use" style="endArrow=open;endSize=12;dashed=1;html=1;rounded=0;entryX=0;entryY=0.5;entryDx=0;entryDy=0;exitX=0.888;exitY=1.034;exitDx=0;exitDy=0;exitPerimeter=0;" edge="1" parent="WIyWlLk6GJQsqaUBKTNV-1" source="wLpp5JI_pL3VEKy43RH7-117" target="wLpp5JI_pL3VEKy43RH7-154">
          <mxGeometry width="160" relative="1" as="geometry">
            <mxPoint x="80" y="1050" as="sourcePoint" />
            <mxPoint x="240" y="1050" as="targetPoint" />
            <Array as="points">
              <mxPoint x="200" y="1100" />
            </Array>
          </mxGeometry>
        </mxCell>
        <mxCell id="wLpp5JI_pL3VEKy43RH7-240" value="Use" style="endArrow=open;endSize=12;dashed=1;html=1;rounded=0;entryX=0.5;entryY=0;entryDx=0;entryDy=0;exitX=0.25;exitY=0;exitDx=0;exitDy=0;" edge="1" parent="WIyWlLk6GJQsqaUBKTNV-1" source="wLpp5JI_pL3VEKy43RH7-111" target="wLpp5JI_pL3VEKy43RH7-75">
          <mxGeometry width="160" relative="1" as="geometry">
            <mxPoint x="-220" y="160" as="sourcePoint" />
            <mxPoint x="-60" y="160" as="targetPoint" />
            <Array as="points">
              <mxPoint x="-450" y="-20" />
              <mxPoint x="660" y="-90" />
            </Array>
          </mxGeometry>
        </mxCell>
        <mxCell id="wLpp5JI_pL3VEKy43RH7-241" value="" style="endArrow=diamondThin;endFill=1;endSize=24;html=1;rounded=0;entryX=0.5;entryY=0;entryDx=0;entryDy=0;exitX=0.75;exitY=0;exitDx=0;exitDy=0;" edge="1" parent="WIyWlLk6GJQsqaUBKTNV-1" source="wLpp5JI_pL3VEKy43RH7-111" target="wLpp5JI_pL3VEKy43RH7-118">
          <mxGeometry width="160" relative="1" as="geometry">
            <mxPoint x="210" y="-180" as="sourcePoint" />
            <mxPoint x="370" y="-180" as="targetPoint" />
            <Array as="points">
              <mxPoint x="-310" y="-120" />
              <mxPoint x="1180" y="-220" />
            </Array>
          </mxGeometry>
        </mxCell>
        <mxCell id="wLpp5JI_pL3VEKy43RH7-242" value="" style="endArrow=diamondThin;endFill=1;endSize=24;html=1;rounded=0;entryX=0;entryY=0.5;entryDx=0;entryDy=0;exitX=1;exitY=0.5;exitDx=0;exitDy=0;" edge="1" parent="WIyWlLk6GJQsqaUBKTNV-1" source="wLpp5JI_pL3VEKy43RH7-112" target="wLpp5JI_pL3VEKy43RH7-60">
          <mxGeometry width="160" relative="1" as="geometry">
            <mxPoint x="-230" y="440" as="sourcePoint" />
            <mxPoint x="-70" y="440" as="targetPoint" />
          </mxGeometry>
        </mxCell>
        <mxCell id="wLpp5JI_pL3VEKy43RH7-243" value="" style="endArrow=diamondThin;endFill=1;endSize=24;html=1;rounded=0;entryX=0;entryY=0.5;entryDx=0;entryDy=0;exitX=1;exitY=0.5;exitDx=0;exitDy=0;" edge="1" parent="WIyWlLk6GJQsqaUBKTNV-1" source="wLpp5JI_pL3VEKy43RH7-117" target="wLpp5JI_pL3VEKy43RH7-150">
          <mxGeometry width="160" relative="1" as="geometry">
            <mxPoint x="740" y="910" as="sourcePoint" />
            <mxPoint x="900" y="910" as="targetPoint" />
            <Array as="points">
              <mxPoint x="70" y="900" />
            </Array>
          </mxGeometry>
        </mxCell>
        <mxCell id="wLpp5JI_pL3VEKy43RH7-244" value="" style="endArrow=diamondThin;endFill=1;endSize=24;html=1;rounded=0;entryX=0;entryY=0.5;entryDx=0;entryDy=0;exitX=0.501;exitY=1.022;exitDx=0;exitDy=0;exitPerimeter=0;" edge="1" parent="WIyWlLk6GJQsqaUBKTNV-1" source="wLpp5JI_pL3VEKy43RH7-117" target="wLpp5JI_pL3VEKy43RH7-79">
          <mxGeometry width="160" relative="1" as="geometry">
            <mxPoint x="-300" y="1010" as="sourcePoint" />
            <mxPoint x="-140" y="1010" as="targetPoint" />
          </mxGeometry>
        </mxCell>
        <mxCell id="wLpp5JI_pL3VEKy43RH7-246" value="" style="endArrow=diamondThin;endFill=1;endSize=24;html=1;rounded=0;entryX=0;entryY=0;entryDx=0;entryDy=0;exitX=0.508;exitY=1.391;exitDx=0;exitDy=0;exitPerimeter=0;" edge="1" parent="WIyWlLk6GJQsqaUBKTNV-1" source="wLpp5JI_pL3VEKy43RH7-117" target="wLpp5JI_pL3VEKy43RH7-17">
          <mxGeometry width="160" relative="1" as="geometry">
            <mxPoint x="420" y="1240" as="sourcePoint" />
            <mxPoint x="580" y="1240" as="targetPoint" />
            <Array as="points">
              <mxPoint x="-70" y="1110" />
              <mxPoint x="540" y="1270" />
            </Array>
          </mxGeometry>
        </mxCell>
      </root>
    </mxGraphModel>
  </diagram>
</mxfile>
